<?xml version="1.0" standalone="no"?>
<!DOCTYPE svg PUBLIC "-//W3C//DTD SVG 20010904//EN"
 "http://www.w3.org/TR/2001/REC-SVG-20010904/DTD/svg10.dtd">
<svg version="1.0" xmlns="http://www.w3.org/2000/svg"
 width="100" height="80" viewBox="0 0 400 400"
 >

<g transform="translate(0.000000,500.000000) scale(0.100000,-0.100000)"
fill="#000000" stroke="none">
<path d="M2054 3494 c-25 -26 -65 -87 -89 -136 l-44 -88 -3 82 c-3 77 -5 83
-25 86 -16 2 -28 -6 -42 -30 -45 -72 -37 -168 20 -261 23 -37 29 -59 29 -105
1 -31 7 -70 13 -86 l13 -29 21 26 c13 17 31 27 47 27 29 0 27 -8 31 135 3 117
23 186 85 290 47 81 51 128 11 133 -17 3 -34 -9 -67 -44z m51 -14 c-5 -8 -11
-8 -17 -2 -6 6 -7 16 -3 22 5 8 11 8 17 2 6 -6 7 -16 3 -22z m25 -20 c0 -5 -4
-10 -10 -10 -5 0 -10 5 -10 10 0 6 5 10 10 10 6 0 10 -4 10 -10z m-40 -40 c0
-5 -4 -10 -10 -10 -5 0 -10 5 -10 10 0 6 5 10 10 10 6 0 10 -4 10 -10z m-200
-180 c0 -5 -4 -10 -10 -10 -5 0 -10 5 -10 10 0 6 5 10 10 10 6 0 10 -4 10 -10z"/>
<path d="M2752 3528 c-20 -20 -14 -49 28 -120 49 -82 67 -129 81 -217 11 -68
4 -181 -11 -181 -5 0 -14 27 -21 61 -7 33 -19 67 -27 75 -13 14 -17 13 -35 -5
-30 -29 -29 -130 1 -188 28 -53 27 -64 -1 -91 l-24 -22 -67 44 c-74 50 -113
64 -201 73 -33 3 -69 12 -80 19 -26 18 -66 18 -91 -1 -10 -8 -14 -15 -8 -15
25 0 35 -50 23 -110 -15 -80 -37 -111 -97 -142 l-52 -27 -31 29 c-66 59 -69
61 -69 45 0 -8 -7 -15 -15 -15 -8 0 -15 5 -15 10 0 6 -7 10 -15 10 -8 0 -15
-7 -15 -15 0 -21 -23 -19 -62 5 -18 11 -37 20 -42 20 -14 0 16 -31 39 -40 17
-8 16 -9 -10 -10 -16 0 -37 -5 -45 -10 -19 -13 117 -1 144 12 29 15 80 1 111
-32 l28 -30 -27 -25 c-39 -36 -147 -48 -213 -23 -26 10 -60 28 -75 40 -24 20
-27 28 -22 60 4 24 13 40 25 43 17 6 17 7 0 46 -24 52 -28 55 -50 35 -18 -17
-21 -16 -60 3 -51 26 -51 26 -51 -4 0 -24 -2 -25 -68 -25 -116 0 -182 -33
-182 -92 0 -76 105 -222 182 -253 24 -9 78 -19 121 -22 42 -3 77 -9 77 -13 0
-3 -14 -19 -31 -36 -38 -35 -69 -98 -68 -139 l0 -30 31 35 c18 19 29 27 25 17
-10 -25 4 -21 29 10 l21 27 -4 -51 c-5 -50 19 -153 36 -153 20 0 28 151 11
196 -9 24 -7 31 15 53 22 22 27 24 35 11 5 -8 10 -29 10 -47 0 -57 18 -45 34
24 17 76 28 88 92 98 118 17 248 -74 292 -205 12 -35 22 -69 22 -75 0 -6 -15
-15 -32 -20 -38 -12 -46 -36 -24 -70 22 -34 92 -68 122 -61 32 8 104 74 104
95 0 22 -19 41 -43 41 -22 0 -20 9 33 124 64 138 119 186 215 186 103 0 214
-87 288 -226 l36 -69 1 40 c0 47 -19 120 -48 188 l-21 47 63 0 c136 0 235 61
296 183 65 131 19 187 -152 187 -66 0 -68 1 -68 25 0 30 0 30 -52 4 -37 -19
-42 -19 -50 -5 -5 9 -15 16 -22 16 -13 0 -80 -67 -127 -129 l-26 -33 -16 22
c-15 21 -13 25 25 73 62 79 97 157 109 244 7 53 22 101 46 150 33 65 35 78 30
132 -6 67 -33 124 -61 129 -28 6 -36 -16 -36 -98 l-1 -75 -22 51 c-49 112
-134 224 -171 224 -6 0 -17 -5 -24 -12z m58 -32 c0 -8 -4 -17 -9 -21 -12 -7
-24 12 -16 25 9 15 25 12 25 -4z m-30 -36 c0 -5 -4 -10 -10 -10 -5 0 -10 5
-10 10 0 6 5 10 10 10 6 0 10 -4 10 -10z m40 -40 c0 -5 -2 -10 -4 -10 -3 0 -8
5 -11 10 -3 6 -1 10 4 10 6 0 11 -4 11 -10z m201 -183 c-13 -13 -26 -3 -16 12
3 6 11 8 17 5 6 -4 6 -10 -1 -17z m-226 -127 c-3 -5 -10 -10 -16 -10 -5 0 -9
5 -9 10 0 6 7 10 16 10 8 0 12 -4 9 -10z m-1069 -405 c27 -8 71 -28 98 -45
l49 -31 -42 -43 c-42 -42 -44 -43 -84 -34 -57 13 -119 51 -156 95 -37 45 -38
51 -8 63 33 13 88 12 143 -5z m1533 9 c39 -8 39 -24 0 -69 -46 -52 -107 -84
-194 -100 -101 -20 -99 -20 -118 20 l-16 34 74 47 c107 66 173 84 254 68z
m-1371 -159 c-11 -24 -37 -33 -52 -18 -5 5 44 39 61 43 2 0 -3 -11 -9 -25z
m622 -435 c0 -5 -18 -10 -40 -10 -22 0 -40 5 -40 10 0 6 18 10 40 10 22 0 40
-4 40 -10z"/>
<path d="M2071 3113 c-17 -61 -15 -76 12 -69 12 3 33 6 46 6 21 0 23 3 16 38
-8 44 -21 62 -46 62 -12 0 -21 -12 -28 -37z m49 -3 c0 -5 -4 -10 -10 -10 -5 0
-10 5 -10 10 0 6 5 10 10 10 6 0 10 -4 10 -10z"/>
<path d="M2254 3142 c-32 -21 -43 -77 -20 -107 13 -18 15 -18 40 -1 15 9 32
28 38 42 21 46 -19 92 -58 66z"/>
<path d="M2414 3140 c-24 -9 -74 -66 -74 -83 0 -7 -21 -25 -45 -42 -25 -16
-45 -34 -45 -38 0 -5 18 6 40 23 36 29 43 31 72 21 50 -18 87 -13 113 14 29
28 32 61 9 93 -16 23 -35 26 -70 12z"/>
<path d="M2004 2939 c3 -17 15 -42 26 -56 11 -14 20 -34 20 -44 0 -21 16 -34
25 -19 3 5 15 10 26 10 12 0 19 7 19 20 0 21 -24 27 -36 9 -8 -13 -64 68 -64
94 0 9 -5 17 -11 17 -7 0 -9 -11 -5 -31z"/>
<path d="M2223 2914 c-19 -41 -46 -69 -51 -53 -5 12 -29 12 -37 0 -3 -5 1 -16
9 -24 16 -15 9 -32 -14 -32 -8 0 -15 -8 -15 -18 0 -10 -7 -22 -15 -27 -13 -8
-12 -10 3 -10 18 0 48 27 80 74 21 31 40 33 69 7 20 -19 20 -28 3 -76 -6 -16
-3 -15 14 5 28 34 26 49 -10 86 -30 31 -31 35 -19 64 19 45 4 49 -17 4z"/>
<path d="M2030 2790 c0 -11 6 -20 13 -20 19 0 27 10 20 26 -8 21 -33 17 -33
-6z"/>
<path d="M2085 2801 c-3 -5 -1 -12 5 -16 5 -3 10 1 10 9 0 18 -6 21 -15 7z"/>
<path d="M1763 2191 c-18 -35 -33 -76 -33 -91 0 -40 11 -90 20 -90 4 0 17 26
29 58 16 43 21 75 19 123 l-3 64 -32 -64z"/>
<path d="M2673 2174 c6 -61 38 -94 89 -94 28 0 46 7 64 25 19 19 31 23 54 18
19 -3 30 -1 30 6 0 6 -8 11 -17 12 -14 0 -13 3 5 11 30 15 28 24 -5 23 -23 0
-27 4 -25 23 5 33 -14 27 -27 -10 -15 -43 -50 -78 -77 -78 -30 0 -62 35 -70
77 -10 51 -27 41 -21 -13z"/>
<path d="M1990 2165 c0 -21 -5 -25 -32 -26 l-33 -1 30 -13 c19 -9 24 -14 13
-15 -10 0 -18 -5 -18 -11 0 -7 11 -9 29 -6 21 5 34 1 47 -15 49 -54 120 -39
147 31 10 23 17 51 17 62 0 32 -24 17 -31 -20 -9 -43 -36 -71 -69 -71 -31 0
-53 21 -75 73 -18 43 -25 47 -25 12z"/>
<path d="M2250 2015 c0 -8 7 -15 15 -15 8 0 15 7 15 15 0 8 -7 15 -15 15 -8 0
-15 -7 -15 -15z"/>
<path d="M2610 2000 c0 -13 5 -20 13 -17 6 2 12 10 12 17 0 7 -6 15 -12 18 -8
2 -13 -5 -13 -18z"/>
<path d="M2220 1965 c0 -9 5 -15 11 -13 6 2 11 8 11 13 0 5 -5 11 -11 13 -6 2
-11 -4 -11 -13z"/>
<path d="M2280 1970 c0 -5 5 -10 10 -10 6 0 10 5 10 10 0 6 -4 10 -10 10 -5 0
-10 -4 -10 -10z"/>
<path d="M2590 1955 c0 -8 5 -15 10 -15 6 0 10 7 10 15 0 8 -4 15 -10 15 -5 0
-10 -7 -10 -15z"/>
<path d="M2630 1955 c0 -8 7 -15 15 -15 8 0 15 7 15 15 0 8 -7 15 -15 15 -8 0
-15 -7 -15 -15z"/>
<path d="M2360 1932 c0 -12 32 -40 50 -43 27 -6 69 11 80 31 13 23 3 25 -24 5
-25 -19 -56 -19 -84 1 -12 8 -22 11 -22 6z"/>
</g>
</svg>
